<svg xmlns="http://www.w3.org/2000/svg" width="140" height="24" viewBox="0 0 140 24" fill="none"><path d="M22.9773 8.309C22.9103 8.102 22.7183 7.961 22.5003 7.961H14.3673L11.9773 0.312C11.8463 -0.104 11.1533 -0.104 11.0223 0.312L8.63228 7.961H0.500279C0.282279 7.961 0.0902792 8.102 0.0232792 8.309C-0.0417208 8.516 0.0322792 8.742 0.209279 8.869L6.89728 13.645L4.03228 21.286C3.95528 21.492 4.02128 21.724 4.19528 21.858C4.37028 21.993 4.60928 21.995 4.79128 21.869L11.5003 17.076L18.2093 21.869C18.2973 21.931 18.3983 21.962 18.5003 21.962C18.6073 21.962 18.7153 21.928 18.8053 21.858C18.9793 21.724 19.0453 21.492 18.9683 21.286L16.1033 13.645L22.7913 8.869C22.9683 8.742 23.0423 8.516 22.9773 8.309Z" fill="#00BAF8"></path><path d="M51.9773 8.309C51.9103 8.102 51.7183 7.961 51.5003 7.961H43.3673L40.9773 0.312C40.8463 -0.104 40.1533 -0.104 40.0223 0.312L37.6323 7.961H29.5003C29.2823 7.961 29.0903 8.102 29.0233 8.309C28.9583 8.516 29.0323 8.742 29.2093 8.869L35.8973 13.645L33.0323 21.286C32.9553 21.492 33.0213 21.724 33.1953 21.858C33.3703 21.993 33.6093 21.995 33.7913 21.869L40.5003 17.076L47.2093 21.869C47.2973 21.931 47.3983 21.962 47.5003 21.962C47.6073 21.962 47.7153 21.928 47.8053 21.858C47.9793 21.724 48.0453 21.492 47.9683 21.286L45.1033 13.645L51.7913 8.869C51.9683 8.742 52.0423 8.516 51.9773 8.309Z" fill="#00BAF8"></path><path d="M80.9773 8.309C80.9103 8.102 80.7183 7.961 80.5003 7.961H72.3673L69.9773 0.312C69.8463 -0.104 69.1533 -0.104 69.0223 0.312L66.6323 7.961H58.5003C58.2823 7.961 58.0903 8.102 58.0233 8.309C57.9583 8.516 58.0323 8.742 58.2093 8.869L64.8973 13.645L62.0323 21.286C61.9553 21.492 62.0213 21.724 62.1953 21.858C62.3703 21.993 62.6093 21.995 62.7913 21.869L69.5003 17.076L76.2093 21.869C76.2973 21.931 76.3983 21.962 76.5003 21.962C76.6073 21.962 76.7153 21.928 76.8053 21.858C76.9793 21.724 77.0453 21.492 76.9683 21.286L74.1033 13.645L80.7913 8.869C80.9683 8.742 81.0423 8.516 80.9773 8.309Z" fill="#00BAF8"></path><path d="M109.977 8.309C109.91 8.102 109.718 7.961 109.5 7.961H101.367L98.9773 0.312C98.8463 -0.104 98.1533 -0.104 98.0223 0.312L95.6323 7.961H87.5003C87.2823 7.961 87.0903 8.102 87.0233 8.309C86.9583 8.516 87.0323 8.742 87.2093 8.869L93.8973 13.645L91.0323 21.286C90.9553 21.492 91.0213 21.724 91.1953 21.858C91.3703 21.993 91.6093 21.995 91.7913 21.869L98.5003 17.076L105.209 21.869C105.297 21.931 105.398 21.962 105.5 21.962C105.607 21.962 105.715 21.928 105.805 21.858C105.979 21.724 106.045 21.492 105.968 21.286L103.103 13.645L109.791 8.869C109.968 8.742 110.042 8.516 109.977 8.309Z" fill="#00BAF8"></path><path d="M138.977 8.309C138.91 8.102 138.718 7.961 138.5 7.961H130.367L127.977 0.312C127.846 -0.104 127.153 -0.104 127.022 0.312L124.632 7.961H116.5C116.282 7.961 116.09 8.102 116.023 8.309C115.958 8.516 116.032 8.742 116.209 8.869L122.897 13.645L120.032 21.286C119.955 21.492 120.021 21.724 120.195 21.858C120.37 21.993 120.609 21.995 120.791 21.869L127.5 17.076L134.209 21.869C134.297 21.931 134.398 21.962 134.5 21.962C134.607 21.962 134.715 21.928 134.805 21.858C134.979 21.724 135.045 21.492 134.968 21.286L132.103 13.645L138.791 8.869C138.968 8.742 139.042 8.516 138.977 8.309Z" fill="#00BAF8"></path></svg>