<svg xmlns="http://www.w3.org/2000/svg" id="uuid-3b6b4b2c-3b66-45da-9eab-28be77d921c3" viewBox="0 0 205.3 30.81"><path d="M11.55,9.43v10.78c1.38-.82,2.06-2,2.56-3.56l.35,.18c-.32,3.89-3.03,7.66-7.16,7.66S0,21.38,0,16.44c0-3.77,2.27-6.1,5.51-8.13-.42-.12-.86-.18-1.3-.18-2.12,0-3.36,1.44-3.36,2.92H.44c-.02-.21-.03-.41-.03-.62,0-2.74,1.62-5.8,4.98-5.8,2.15,0,3.8,1.97,6.3,1.97,1.27,0,1.97-.47,2.47-1.56h.35c-.03,1.91-.59,3.77-2.97,4.39Zm-5.6-.97c-1.5,1.56-2.97,3.21-2.97,6.54,0,1.83,.56,3.65,1.94,4.83l.91-.5v-7.45l-.94,.5-.29-.47,4.42-2.47c-1.12-.24-2.03-.68-3.06-.97Zm5.04,1.09c-.22,.03-.45,.03-.68,.03-.4,0-.79-.03-1.18-.12v8.69l-3.77,2.06c.84,.62,1.87,.93,2.92,.88,.93,0,1.86-.2,2.71-.59V9.54Zm12.96,2.71v10.1c0,2.83-2.51,4.75-5.3,5.3l-.18-.29c1.38-.68,2.3-1.89,2.3-3.36V13.46l-1.44-1.33-.77,.77v7.98l.88,.82v.12l-2.39,2.54-2.74-2.51v-.12l1.06-1.12V7.6l3.12-3.33,.06,.03v7.83l2.56-2.71,2.56,2.33,.8-.77,.39,.38-.92,.88Zm4.89,6.01v1.33l2.65,2.09,2.06-2.15,.38,.38-4.19,4.48-3.77-3-.82,.82-.35-.38,.91-.94v-7.39l5.57-4.06,3.09,4.8-5.54,4.04Zm.06-6.66l-.06,.03v5.92l2.56-1.89-2.5-4.06Zm24.12,12.76l-4.09-3.53-3.12,3.53-4.24-3.66v-5.77h-.82c-.61-.04-1.15,.42-1.21,1.03h-.29c-.09-.37-.14-.74-.15-1.12,0-.77,.32-2.77,2.47-2.77V7.6c0-1.74-1.15-1.83-1.15-3.33,0-1.68,1.59-3.24,4.51-4.27l.27,.24c-.97,.47-1.77,1.06-1.77,2.33,0,1.94,1.89,1.44,1.89,4.51v1.18l3.45-3.62,3.62,3.56,3.42-3.56,3.3,3.24v10.9l-6.07,5.6Zm-4.3-14.7l-2.06-2.03-1.35,1.38v10.1l2.5,2.15,.91-1.03V9.66Zm6.66-.38l-1.65-1.65-1.27,1.27v10.19l2.89,2.53,.03-.03V9.28Zm13.2,15.08l-2.77-2.54h-.06l-2.44,2.54-2.97-2.62-.68,.68-.38-.38,.85-.88v-7.75l5.6-4.01,3.06,2.42,.82-.82,.44,.38-1.06,1v7.98l1.35,1.24,.85-.88,.44,.41-3.06,3.24Zm-2.77-11.02l-2.44-1.91-.06,.06v8.6l1.8,1.59,.71-.68v-7.66Zm11.96,1.41h2.77v6.3l-4.68,3.3c-.64-.77-1.59-1.21-2.59-1.21-.88,0-1.59,.41-2.3,1.18l-.41-.15,4.06-5.83h-2.5v-5.48l4.89-3.45c.59,.47,1.06,.77,1.83,.77,.75,.02,1.49-.2,2.09-.65l.29,.21-3.45,5.01Zm-.41,2.59h-1.38l-3.27,4.68,.03,.06c.64-.49,1.43-.75,2.24-.74,.91,0,1.78,.41,2.36,1.12l.03-.03v-5.1Zm1.89-5.77c-.56,.48-1.29,.72-2.03,.68-.71-.02-1.38-.33-1.86-.85l-.06,.03v4.3h1.12l2.86-4.12-.03-.03Zm11.78,.68v10.1c0,2.83-2.51,4.75-5.3,5.3l-.18-.29c1.38-.68,2.3-1.89,2.3-3.36V13.46l-1.44-1.33-.77,.77v7.98l.88,.82v.12l-2.39,2.54-2.74-2.51v-.12l1.06-1.12V7.6l3.12-3.33,.06,.03v7.83l2.56-2.71,2.57,2.33,.8-.77,.38,.38-.92,.88Zm5.77,12.11l-2.44-2.24-.82,.82-.38-.38,.97-1V13.17l-1.06-.97-.8,.77-.38-.38,2.97-3.15,2.24,2.03,.8-.82,.41,.41-1,1v8.42l1.24,1.15,.88-.91,.38,.41-3,3.24Zm-.85-15.2l-2.42-2.21,2.21-2.36,2.42,2.21-2.21,2.36Zm13.58,15.2l-2.56-2.33V13.43l-1.38-1.3-1,1.03v7.69l.91,.85v.12l-2.42,2.54-2.74-2.51v-.09l1.06-1.12v-7.42l-1.21-1.09-.88,.88-.41-.38,3-3.21,2.68,2.39v.59l2.8-2.97,2.56,2.3,.85-.85,.38,.41-1.03,1.03v8.25l1.15,1.09,.97-1,.35,.38-3.09,3.33Zm12.67-12.08v9.98c0,1.53,.85,1.47,.85,2.62,0,1.33-1.91,2.57-4.86,4.77-.97-1.06-1.65-1.5-2.56-1.5-1.13,.04-2.23,.41-3.15,1.06l-.29-.24,4.04-4.75-2.65-2.09-.85,.85-.38-.38,1-1.03V13.4l5.6-4.01,3,2.36,.88-.85,.38,.38-1,1Zm-2.27,12.29c-.74-.47-.91-.97-.91-2.24v-.44l-4.74,5.51,.03,.03c.94-.56,1.65-.91,3.03-.91,1.18,0,2.03,.5,2.8,1.18,.56-.47,.97-.94,.97-1.68,0-.59-.44-.97-1.18-1.44h0Zm-.91-11.23l-2.44-1.91-.06,.06v9.04l1.74,1.35,.77-.88v-7.66Zm9.28,11.02l-2.59-2.04-.8,.8-.38-.38,.91-.95V11.61h-1.71l-.06-.06,1.03-1.53h.74v-1.97l3.12-3.33,.06,.06v5.24h2.36l.06,.06-1.03,1.53h-1.38v8.92l1.41,1.09,.97-1,.38,.41-3.09,3.33Zm12.87-11.81v8.16l-4.98,3.68-3.63-2.74-.82,.82-.38-.38,.94-.97v-7.95l5.22-3.74,3.36,2.62,.85-.85,.38,.41-.94,.94Zm-3.18,.88l-2.48-1.94-.03,.03v8.78l2.5,1.89V13.43Zm14.85,10.9l-2.56-2.33V13.4l-1.38-1.3-1,1.03v7.69l.91,.85v.12l-2.42,2.54-2.74-2.51v-.09l1.06-1.12v-7.42l-1.21-1.09-.88,.88-.41-.38,3-3.21,2.68,2.39v.59l2.8-2.97,2.56,2.3,.85-.85,.38,.41-1.03,1.03v8.25l1.15,1.09,.97-1,.35,.38-3.09,3.33Zm18.08,.03c-.46-.63-1.11-1.11-1.86-1.36v6.13l-.06,.03-1.62-1.5-3.42,3.15-.06-.03v-7.93c-1.19,.3-2.25,.98-3,1.95l-.24-.15c.21-2.27,1.33-3.95,3.24-4.6v-5.74h-.62c-.75-.02-1.41,.5-1.56,1.24h-.35c-.15-.43-.22-.89-.21-1.35,0-1.44,.97-2.53,2.56-2.53h.18v-3.18l-1.06-.94-.82,.82-.41-.38,3.27-3.36,2.77,2.53v2.89l.85-.91v-3.39h.56v2.8l3.68-3.92,3.33,3.03v12.81l-5.15,3.89Zm-2.42-14.67l-.85,.88V27.16l.85,.8V9.69Zm3.86-.68l-1.74-1.59-1.56,1.65v10.69c1.38,.18,2.42,.65,3.27,1.56l.03-.03V9.01Zm14.34,3.53v8.16l-4.98,3.68-3.62-2.74-.82,.82-.38-.38,.94-.97v-7.95l5.21-3.74,3.36,2.62,.85-.85,.38,.41-.94,.94Zm-3.18,.88l-2.47-1.94-.03,.03v8.78l2.5,1.89V13.43Zm10.49,1.33h2.77v6.3l-4.68,3.3c-.64-.77-1.59-1.21-2.59-1.21-.88,0-1.59,.41-2.3,1.18l-.41-.15,4.06-5.83h-2.5v-5.48l4.89-3.45c.59,.47,1.06,.77,1.83,.77,.75,.02,1.49-.2,2.09-.65l.29,.21-3.45,5.01Zm-.41,2.59h-1.38l-3.27,4.68,.03,.06c.64-.49,1.43-.75,2.24-.74,.91,0,1.78,.41,2.36,1.12l.03-.03v-5.1Zm1.89-5.77c-.57,.48-1.29,.72-2.04,.68-.71-.02-1.38-.33-1.86-.85l-.06,.03v4.3h1.12l2.86-4.12-.03-.03Zm6.75,12.79l-2.59-2.04-.8,.8-.38-.38,.91-.95V11.61h-1.71l-.06-.06,1.03-1.53h.74v-1.97l3.13-3.33,.06,.06v5.24h2.36l.06,.06-1.03,1.53h-1.38v8.92l1.41,1.09,.97-1,.38,.41-3.09,3.33Z" style="fill:#111;"></path></svg>